<svg width="80" height="23" viewBox="0 0 80 23" fill="none" xmlns="http://www.w3.org/2000/svg">
<g clip-path="url(#clip0_1_15)">
<path d="M78.392 0.599998C78.8187 0.599998 79.16 0.749332 79.416 1.048C79.6933 1.32533 79.832 1.67733 79.832 2.104V21.368C79.832 21.8373 79.672 22.232 79.352 22.552C79.0533 22.8507 78.6693 23 78.2 23C77.9867 23 77.752 22.9573 77.496 22.872C77.2613 22.7867 77.08 22.6693 76.952 22.52L63.8 5.464L64.536 5.048V21.528C64.536 21.9333 64.3973 22.2853 64.12 22.584C63.8427 22.8613 63.4907 23 63.064 23C62.616 23 62.2533 22.8613 61.976 22.584C61.72 22.2853 61.592 21.9333 61.592 21.528V2.232C61.592 1.74133 61.752 1.34667 62.072 1.048C62.392 0.749332 62.776 0.599998 63.224 0.599998C63.4587 0.599998 63.704 0.653332 63.96 0.759998C64.2373 0.845332 64.44 0.983999 64.568 1.176L77.4 17.88L76.92 18.328V2.104C76.92 1.67733 77.0587 1.32533 77.336 1.048C77.6133 0.749332 77.9653 0.599998 78.392 0.599998Z" fill="black"/>
<path d="M29.032 0.599998C30.5893 0.599998 31.9653 0.898665 33.16 1.496C34.3547 2.072 35.3467 2.88267 36.136 3.928C36.9467 4.952 37.5547 6.14667 37.96 7.512C38.3653 8.856 38.568 10.2853 38.568 11.8C38.568 13.8693 38.2053 15.7573 37.48 17.464C36.7547 19.1493 35.688 20.4933 34.28 21.496C32.872 22.4987 31.1227 23 29.032 23H21.224C20.776 23 20.392 22.8507 20.072 22.552C19.752 22.232 19.592 21.8373 19.592 21.368V2.232C19.592 1.76267 19.752 1.37867 20.072 1.08C20.392 0.759998 20.776 0.599998 21.224 0.599998H29.032ZM28.712 19.928C30.2267 19.928 31.4533 19.5547 32.392 18.808C33.3307 18.0613 34.0133 17.08 34.44 15.864C34.888 14.6267 35.112 13.272 35.112 11.8C35.112 10.712 34.984 9.688 34.728 8.728C34.4933 7.74667 34.1093 6.88267 33.576 6.136C33.064 5.368 32.4027 4.77067 31.592 4.344C30.8027 3.896 29.8427 3.672 28.712 3.672H22.664L22.952 3.384V20.248L22.76 19.928H28.712Z" fill="black"/>
<path d="M0 19H13.5C14.3284 19 15 19.6716 15 20.5V20.5C15 21.3284 14.3284 22 13.5 22H0V19Z" fill="black"/>
<path d="M0 2H13.5C14.3284 2 15 2.67157 15 3.5V3.5C15 4.32843 14.3284 5 13.5 5H0V2Z" fill="black"/>
<path d="M0 10.5H13.5C14.3284 10.5 15 11.1716 15 12V12C15 12.8284 14.3284 13.5 13.5 13.5H0V10.5Z" fill="black"/>
<path d="M42 19H55.5C56.3284 19 57 19.6716 57 20.5V20.5C57 21.3284 56.3284 22 55.5 22H42V19Z" fill="black"/>
<path d="M42 2H55.5C56.3284 2 57 2.67157 57 3.5V3.5C57 4.32843 56.3284 5 55.5 5H42V2Z" fill="black"/>
<path d="M42 10.5H55.5C56.3284 10.5 57 11.1716 57 12V12C57 12.8284 56.3284 13.5 55.5 13.5H42V10.5Z" fill="black"/>
</g>
<defs>
<clipPath id="clip0_1_15">
<rect width="80" height="23" fill="white"/>
</clipPath>
</defs>
</svg>
